<svg width="198" height="60" viewBox="0 0 198 60" fill="none" xmlns="http://www.w3.org/2000/svg">
<path d="M47.5182 26.6701C37.9953 21.0086 22.2876 20.4881 13.1968 23.2502C11.7369 23.6934 10.1932 22.8684 9.75088 21.407C9.30853 19.9449 10.1318 18.4005 11.5926 17.9562C22.0282 14.7847 39.3757 15.3975 50.3386 21.9124C51.652 22.6925 52.0827 24.3902 51.3042 25.7029C50.5252 27.0172 48.828 27.4505 47.5182 26.6701ZM47.2063 35.0558C46.5385 36.1413 45.121 36.4813 44.0384 35.8153C36.0991 30.9297 23.9927 29.5144 14.6 32.3686C13.382 32.7371 12.0955 32.0496 11.7256 30.8324C11.3585 29.613 12.0456 28.3274 13.2614 27.9566C23.9914 24.6971 37.3299 26.2759 46.4485 31.8859C47.5312 32.5533 47.872 33.9732 47.2063 35.0558ZM43.5914 43.1092C43.0608 43.9805 41.927 44.2538 41.0599 43.7227C34.1223 39.478 25.3903 38.5191 15.1069 40.8708C14.1158 41.0983 13.1283 40.4764 12.9022 39.4846C12.6752 38.4926 13.2938 37.5041 14.2871 37.2778C25.5406 34.7022 35.1939 35.8107 42.9807 40.5742C43.8489 41.1049 44.1223 42.2405 43.5914 43.1092ZM30.0429 0.450993C13.7272 0.450993 0.500122 13.692 0.500122 30.0259C0.500122 46.3612 13.7272 59.6019 30.0429 59.6019C46.3593 59.6019 59.5856 46.3612 59.5856 30.0259C59.5856 13.692 46.3593 0.450993 30.0429 0.450993Z" fill="#1ED760"/>
<path d="M80.8757 27.7542C75.7749 26.5365 74.8665 25.6817 74.8665 23.8863C74.8665 22.1893 76.4625 21.0479 78.8353 21.0479C81.1354 21.0479 83.4157 21.9149 85.8072 23.6998C85.8795 23.7539 85.9702 23.7754 86.0595 23.7613C86.1487 23.7479 86.2274 23.6991 86.28 23.625L88.7706 20.1102C88.8729 19.9658 88.845 19.7659 88.7071 19.6553C85.8612 17.3693 82.6566 16.2578 78.9108 16.2578C73.4032 16.2578 69.5562 19.5663 69.5562 24.3009C69.5562 29.3779 72.8748 31.1753 78.6095 32.5629C83.4905 33.6884 84.3143 34.6313 84.3143 36.3172C84.3143 38.185 82.6485 39.3463 79.9677 39.3463C76.9906 39.3463 74.5617 38.3423 71.845 35.9869C71.7776 35.929 71.6852 35.9022 71.5998 35.9071C71.5102 35.9145 71.428 35.9562 71.3709 36.025L68.5783 39.3523C68.4612 39.4904 68.476 39.6966 68.6111 39.8159C71.7723 42.641 75.6596 44.1334 79.8548 44.1334C85.7896 44.1334 89.6246 40.8868 89.6246 35.8622C89.6246 31.6158 87.0903 29.2674 80.8757 27.7542Z" fill="#1ED760"/>
<path d="M107.36 33.4455C107.36 37.0313 105.154 39.5334 101.994 39.5334C98.8713 39.5334 96.5154 36.9176 96.5154 33.4455C96.5154 29.9739 98.8713 27.3577 101.994 27.3577C105.103 27.3577 107.36 29.9174 107.36 33.4455ZM103.052 22.718C100.479 22.718 98.3693 23.7323 96.6294 25.8107V23.4713C96.6294 23.2866 96.4798 23.1362 96.2953 23.1362H91.7283C91.5438 23.1362 91.3945 23.2866 91.3945 23.4713V49.4653C91.3945 49.65 91.5438 49.8004 91.7283 49.8004H96.2953C96.4798 49.8004 96.6294 49.65 96.6294 49.4653V41.2605C98.3696 43.2156 100.48 44.1705 103.052 44.1705C107.831 44.1705 112.67 40.487 112.67 33.4455C112.67 26.4025 107.831 22.718 103.052 22.718Z" fill="#1ED760"/>
<path d="M125.073 39.571C121.799 39.571 119.331 36.9373 119.331 33.4455C119.331 29.9391 121.714 27.3944 124.998 27.3944C128.293 27.3944 130.778 30.0279 130.778 33.5221C130.778 37.0281 128.379 39.571 125.073 39.571ZM125.073 22.718C118.917 22.718 114.095 27.4633 114.095 33.5221C114.095 39.5151 118.884 44.2106 124.998 44.2106C131.175 44.2106 136.012 39.4813 136.012 33.4455C136.012 27.43 131.208 22.718 125.073 22.718Z" fill="#1ED760"/>
<path d="M149.157 23.1361H144.131V17.9919C144.131 17.8071 143.983 17.6571 143.798 17.6571H139.231C139.047 17.6571 138.896 17.8071 138.896 17.9919V23.1361H136.7C136.516 23.1361 136.368 23.2866 136.368 23.4713V27.4009C136.368 27.5855 136.516 27.7358 136.7 27.7358H138.896V37.9042C138.896 42.0134 140.939 44.0967 144.968 44.0967C146.607 44.0967 147.966 43.758 149.247 43.0308C149.351 42.9726 149.416 42.8603 149.416 42.7409V38.9988C149.416 38.8832 149.355 38.7745 149.257 38.7137C149.157 38.6513 149.034 38.6481 148.932 38.6986C148.052 39.1417 147.201 39.3463 146.251 39.3463C144.786 39.3463 144.131 38.6805 144.131 37.1877V27.7358H149.157C149.342 27.7358 149.491 27.5855 149.491 27.4009V23.4713C149.491 23.2866 149.342 23.1361 149.157 23.1361Z" fill="#1ED760"/>
<path d="M166.668 23.1562V22.5244C166.668 20.6657 167.38 19.8368 168.977 19.8368C169.929 19.8368 170.694 20.0261 171.55 20.3121C171.656 20.3453 171.766 20.3287 171.852 20.2655C171.94 20.2023 171.99 20.1009 171.99 19.9936V16.1405C171.99 15.9932 171.895 15.8629 171.754 15.8198C170.849 15.5503 169.691 15.2735 167.957 15.2735C163.738 15.2735 161.509 17.6517 161.509 22.1486V23.1163H159.315C159.13 23.1163 158.979 23.2664 158.979 23.4511V27.4008C158.979 27.5854 159.13 27.7358 159.315 27.7358H161.509V43.42C161.509 43.6047 161.658 43.7548 161.842 43.7548H166.409C166.593 43.7548 166.744 43.6047 166.744 43.42V27.7358H171.008L177.541 43.4158C176.799 45.0633 176.07 45.3911 175.074 45.3911C174.27 45.3911 173.422 45.1505 172.556 44.6759C172.474 44.6309 172.378 44.6236 172.29 44.6508C172.203 44.6819 172.129 44.7466 172.092 44.8317L170.544 48.2316C170.471 48.3922 170.533 48.5809 170.688 48.6642C172.304 49.5404 173.763 49.9144 175.566 49.9144C178.938 49.9144 180.802 48.3414 182.446 44.1104L190.37 23.6125C190.409 23.5094 190.397 23.3932 190.334 23.3014C190.272 23.2109 190.17 23.1562 190.06 23.1562H185.305C185.163 23.1562 185.035 23.2466 184.988 23.3805L180.118 37.3088L174.782 23.3713C174.734 23.2417 174.609 23.1562 174.471 23.1562H166.668Z" fill="#1ED760"/>
<path d="M156.517 23.1361H151.949C151.765 23.1361 151.615 23.2866 151.615 23.4713V43.42C151.615 43.6048 151.765 43.7549 151.949 43.7549H156.517C156.701 43.7549 156.851 43.6048 156.851 43.42V23.4713C156.851 23.2866 156.701 23.1361 156.517 23.1361Z" fill="#1ED760"/>
<path d="M154.256 14.053C152.447 14.053 150.979 15.5197 150.979 17.3307C150.979 19.1432 152.447 20.6113 154.256 20.6113C156.065 20.6113 157.532 19.1432 157.532 17.3307C157.532 15.5197 156.065 14.053 154.256 14.053Z" fill="#1ED760"/>
<path d="M194.456 25.1205H193.619V26.1889H194.456C194.874 26.1889 195.123 25.9843 195.123 25.6544C195.123 25.3069 194.874 25.1205 194.456 25.1205ZM194.998 26.6445L195.907 27.919H195.141L194.322 26.7501H193.619V27.919H192.977V24.5411H194.482C195.265 24.5411 195.781 24.9427 195.781 25.6185C195.781 26.1722 195.462 26.5106 194.998 26.6445ZM194.286 23.4173C192.639 23.4173 191.393 24.7272 191.393 26.3319C191.393 27.9355 192.631 29.2282 194.269 29.2282C195.915 29.2282 197.162 27.919 197.162 26.3136C197.162 24.7099 195.924 23.4173 194.286 23.4173ZM194.269 29.55C192.461 29.55 191.055 28.0967 191.055 26.3319C191.055 24.5669 192.48 23.097 194.286 23.097C196.093 23.097 197.5 24.5503 197.5 26.3136C197.5 28.0786 196.076 29.55 194.269 29.55Z" fill="#1ED760"/>
</svg>
