<svg width="24" height="24" viewBox="0 0 24 24" fill="none" xmlns="http://www.w3.org/2000/svg">
    <path fill-rule="evenodd" clip-rule="evenodd" d="M16.2912 2C16.38 3.16097 16.013 4.3116 15.2673 5.20604C14.9107 5.65024 14.4575 6.00734 13.9425 6.25057C13.4275 6.4938 12.8643 6.61715 12.2946 6.61197C12.2584 6.05305 12.3321 5.49327 12.5124 4.96367C12.6927 4.43407 12.9756 3.94502 13.3452 3.5241C14.1004 2.66415 15.1522 2.11989 16.2912 2ZM18.3691 10.4511C17.9908 11.1178 17.7873 11.8691 17.7773 12.6359C17.7782 13.4985 18.0331 14.3412 18.5096 15.0596C18.9866 15.7781 19.6641 16.3405 20.4585 16.6769C20.1463 17.6912 19.6758 18.6495 19.0638 19.5172C18.2422 20.7454 17.381 21.9461 16.0143 21.9685C15.3639 21.9832 14.9249 21.796 14.4678 21.602C13.9908 21.3984 13.4935 21.1871 12.716 21.1871C11.891 21.1871 11.3717 21.4053 10.871 21.6158C10.438 21.7977 10.0189 21.9745 9.42842 21.9987C8.12643 22.0471 7.1315 20.6877 6.28017 19.4707C4.57839 16.9839 3.25354 12.4643 5.02993 9.38933C5.44007 8.65187 6.03392 8.03429 6.7537 7.59526C7.47392 7.15623 8.29506 6.91041 9.13819 6.88367C9.87649 6.86815 10.5847 7.15278 11.2061 7.40205C11.6809 7.59354 12.1053 7.76346 12.4524 7.76346C12.7573 7.76346 13.1696 7.59957 13.6497 7.40895C14.4065 7.10879 15.3325 6.74135 16.2761 6.84055C16.9989 6.86297 17.7066 7.05446 18.3432 7.39774C18.9793 7.7419 19.527 8.23009 19.9418 8.82265C19.2885 9.22373 18.7477 9.78438 18.3691 10.4511Z" fill="black"/>
</svg>
